<?xml version="1.0" standalone="no"?>
<!DOCTYPE svg PUBLIC "-//W3C//DTD SVG 20010904//EN"
 "http://www.w3.org/TR/2001/REC-SVG-20010904/DTD/svg10.dtd">
<svg version="1.0" xmlns="http://www.w3.org/2000/svg"
 width="512.000000pt" height="512.000000pt" viewBox="0 0 512.000000 512.000000"
 preserveAspectRatio="xMidYMid meet">
<metadata>
Created by potrace 1.14, written by Peter Selinger 2001-2017
</metadata>
<g transform="translate(0.000000,512.000000) scale(0.100000,-0.100000)"
fill="#000000" stroke="none">
<path d="M2480 4720 l0 -240 -400 0 -400 0 0 -240 0 -240 -57 -1 c-32 0 -67
-2 -78 -4 -11 -2 -47 -7 -80 -11 -33 -4 -62 -8 -65 -9 -3 -1 -21 -5 -40 -9
-127 -28 -329 -111 -443 -183 -230 -145 -404 -337 -525 -579 -103 -206 -143
-371 -148 -614 -6 -274 38 -461 162 -700 201 -386 572 -662 999 -744 107 -20
149 -25 218 -26 l57 0 0 -480 0 -480 80 0 80 0 0 320 0 320 80 0 80 0 0 -320
0 -320 80 0 80 0 0 320 0 320 80 0 80 0 0 -320 0 -320 80 0 80 0 0 320 0 320
80 0 80 0 0 -320 0 -320 80 0 80 0 0 320 0 320 80 0 80 0 0 -320 0 -320 80 0
80 0 0 320 0 320 80 0 80 0 0 -320 0 -320 80 0 80 0 0 480 0 480 38 0 c365 5
730 164 993 433 208 213 343 485 394 792 16 93 14 386 -3 455 -6 25 -13 56
-15 70 -45 240 -203 528 -392 715 -108 106 -273 220 -416 287 -153 72 -388
126 -546 128 l-53 0 0 240 0 240 -400 0 -400 0 0 240 0 240 -80 0 -80 0 0
-240z"/>
</g>
</svg>
